<?xml version="1.0" encoding="UTF-8" standalone="no"?><!DOCTYPE svg PUBLIC "-//W3C//DTD SVG 1.1//EN" "http://www.w3.org/Graphics/SVG/1.1/DTD/svg11.dtd"><svg width="100%" height="100%" viewBox="0 0 838 838" version="1.1" xmlns="http://www.w3.org/2000/svg" xmlns:xlink="http://www.w3.org/1999/xlink" xml:space="preserve" xmlns:serif="http://www.serif.com/" style="fill-rule:evenodd;clip-rule:evenodd;stroke-linejoin:round;stroke-miterlimit:2;"><path d="M486.914,414.782l-110.37,-60.049c-4.522,-2.576 -20.005,0.691 -20.005,5.898l0,117.091c0,5.141 15.357,8.413 19.878,5.967l115.3,-57.042c4.682,-2.534 -0.174,-9.231 -4.803,-11.865" style="fill:#f00;fill-rule:nonzero;"/><path d="M202.87,599.816c0,55.534 395.041,-21.758 339.506,-21.758l-257.12,0c-55.534,0 -100.552,-45.017 -100.552,-100.551l0,-119.653c0,-55.532 45.018,-100.553 100.552,-100.553l-125.583,8.964c55.535,-0 -26.276,164.123 -26.276,219.655l69.473,113.896Zm215.872,-599.816c-231.265,0 -418.742,187.476 -418.742,418.743c0,231.266 187.477,418.743 418.742,418.743c231.263,0 418.74,-187.477 418.74,-418.743c0,-231.267 -187.477,-418.743 -418.74,-418.743" style="fill:#fff;fill-rule:nonzero;"/><path d="M623.384,547.331c-0,2.222 -1.722,4.024 -3.846,4.024l-413.244,-0c-2.125,-0 -3.846,-1.802 -3.846,-4.024l-0,-302.598c-0,-2.222 1.721,-4.024 3.846,-4.024l413.244,0c2.124,0 3.846,1.802 3.846,4.024l-0,302.598Zm36.671,39.21l0,-358.455c0,-11.57 -8.617,-20.949 -19.25,-20.949l-455.779,-0c-10.63,-0 -19.25,9.379 -19.25,20.949l-0,358.455l-61.964,-0l-0,26.67c-0,11.57 8.619,19.86 19.25,19.86l579.708,0.272c10.632,0 19.25,-9.379 19.25,-20.949l0,-25.853l-61.965,-0Z" style="fill:#1a53a9;fill-rule:nonzero;stroke:#099ee6;stroke-width:0.24px;"/></svg>