<?xml version="1.0" encoding="UTF-8" standalone="no"?><!DOCTYPE svg PUBLIC "-//W3C//DTD SVG 1.1//EN" "http://www.w3.org/Graphics/SVG/1.1/DTD/svg11.dtd"><svg width="100%" height="100%" viewBox="0 0 838 838" version="1.1" xmlns="http://www.w3.org/2000/svg" xmlns:xlink="http://www.w3.org/1999/xlink" xml:space="preserve" xmlns:serif="http://www.serif.com/" style="fill-rule:evenodd;clip-rule:evenodd;stroke-linejoin:round;stroke-miterlimit:2;"><path d="M486.914,414.782l-110.37,-60.049c-4.522,-2.576 -20.005,0.691 -20.005,5.898l0,117.091c0,5.141 15.357,8.413 19.878,5.967l115.3,-57.042c4.682,-2.534 -0.174,-9.231 -4.803,-11.865" style="fill:#fff;fill-rule:nonzero;"/><path d="M642.929,477.507c0,55.534 -45.018,100.551 -100.553,100.551l-257.12,0c-55.534,0 -100.552,-45.017 -100.552,-100.551l0,-119.653c0,-55.532 45.018,-100.553 100.552,-100.553l257.12,0c55.535,0 100.553,45.021 100.553,100.553l0,119.653Zm-224.187,-477.507c-231.265,0 -418.742,187.476 -418.742,418.743c0,231.266 187.477,418.743 418.742,418.743c231.263,0 418.74,-187.477 418.74,-418.743c0,-231.267 -187.477,-418.743 -418.74,-418.743" style="fill:#fff;fill-rule:nonzero;"/></svg>