<?xml version="1.0" encoding="UTF-8" standalone="no"?><!DOCTYPE svg PUBLIC "-//W3C//DTD SVG 1.1//EN" "http://www.w3.org/Graphics/SVG/1.1/DTD/svg11.dtd"><svg width="100%" height="100%" viewBox="0 0 198 93" version="1.1" xmlns="http://www.w3.org/2000/svg" xmlns:xlink="http://www.w3.org/1999/xlink" xml:space="preserve" xmlns:serif="http://www.serif.com/" style="fill-rule:evenodd;clip-rule:evenodd;stroke-linejoin:round;stroke-miterlimit:2;"><clipPath id="_clip1"><rect x="0" y="22.502" width="197.708" height="47.996"/></clipPath><g clip-path="url(#_clip1)"><g><g id="Layer-1" serif:id="Layer 1"><path d="M53.555,56.292c-3.811,-3.812 -13.858,-9.503 -13.858,-9.503l-20.987,-0c-0,-0 -10.049,5.691 -13.858,9.503c-3.812,3.811 -4.852,6.401 -4.852,8.182c0,1.784 1.783,5.413 4.157,5.939l9.174,-0c-0,-0 2.838,-2.176 3.301,-3.167c0.461,-0.988 0.922,-4.289 0.922,-10.69c0,0 1.65,-1.979 3.433,-1.979c1.781,-0 3.498,1.385 3.498,2.242c-0,0.857 -0.33,0.924 -0.991,0.924l-1.057,0c0,0 -2.44,1.122 -2.44,4.752c-0,3.631 1.781,4.684 2.311,5.214l13.791,0c0.53,-0.53 2.311,-1.583 2.311,-5.214c-0,-3.63 -2.441,-4.752 -2.441,-4.752l-1.059,0c-0.659,0 -0.988,-0.067 -0.988,-0.924c-0,-0.857 1.718,-2.242 3.497,-2.242c1.784,-0 3.432,1.979 3.432,1.979c-0,6.401 0.462,9.702 0.925,10.69c0.463,0.991 3.3,3.167 3.3,3.167l9.173,-0c2.374,-0.526 4.157,-4.155 4.157,-5.939c0,-1.781 -1.039,-4.371 -4.851,-8.182" style="fill:#fff;fill-rule:nonzero;"/><path d="M4.852,36.625c3.81,3.81 13.858,9.504 13.858,9.504l20.987,0c-0,0 10.046,-5.694 13.858,-9.504c3.812,-3.81 4.851,-6.402 4.851,-8.185c0,-1.781 -1.783,-5.411 -4.157,-5.938l-9.173,-0c0,-0 -2.837,2.177 -3.3,3.168c-0.463,0.989 -0.925,4.289 -0.925,10.692c-0,-0 -1.648,1.979 -3.432,1.979c-1.779,0 -3.497,-1.387 -3.497,-2.244c-0,-0.859 0.329,-0.924 0.988,-0.924l1.06,-0c-0,-0 2.44,-1.122 2.44,-4.751c0,-3.631 -1.781,-4.685 -2.311,-5.215l-13.791,0c-0.53,0.53 -2.311,1.584 -2.311,5.215c-0,3.629 2.44,4.751 2.44,4.751l1.057,-0c0.661,-0 0.991,0.065 0.991,0.924c0,0.857 -1.716,2.244 -3.498,2.244c-1.783,0 -3.433,-1.979 -3.433,-1.979c0,-6.403 -0.461,-9.703 -0.922,-10.692c-0.462,-0.991 -3.301,-3.168 -3.301,-3.168l-9.174,-0c-2.374,0.527 -4.157,4.157 -4.157,5.938c-0,1.783 1.04,4.375 4.852,8.185" style="fill:#fff;fill-rule:nonzero;"/><path d="M71.905,34.693l0.221,1.739l-2.849,-0l0,-11.425l-0.282,-2.079l2.91,0l0,11.765Z" style="fill:#fff;fill-rule:nonzero;"/><path d="M91.227,34.693l0.144,1.739l-1.68,-0l-6.812,-7.662l-0.787,-1.273l-0,7.196l0.221,1.739l-2.548,-0l0,-11.425l-0.282,-2.079l2.023,0l6.628,7.799l0.77,1.255l-0,-6.975l-0.283,-2.079l2.606,0l-0,11.765Z" style="fill:#fff;fill-rule:nonzero;"/><path d="M98.117,33.051c0,0 1.659,1.68 3.78,1.68c1.112,-0 1.901,-0.768 1.901,-1.68c0,-2.3 -5.74,-2.423 -5.74,-6.385c-0,-2.181 1.574,-3.98 4.102,-3.98c1.74,-0 3.055,0.565 3.763,1.01l-0.505,2.023c-0,0 -1.336,-1.115 -3.317,-1.115c-0.747,0 -1.638,0.607 -1.638,1.536c-0,2.342 5.804,2.325 5.804,6.47c-0,2.304 -1.638,4.085 -4.226,4.085c-2.626,-0 -4.124,-1.378 -4.124,-1.378l0.2,-2.266Z" style="fill:#fff;fill-rule:nonzero;"/><path d="M129.585,34.693l0.225,1.739l-2.851,-0l0,-11.425l-0.284,-2.079l2.91,0l0,11.765Z" style="fill:#fff;fill-rule:nonzero;"/><path d="M135.669,22.928l11.239,-0l-0,2.041l-4.365,-0l-0,9.724l0.221,1.739l-2.852,-0l0,-11.463l-4.243,-0l0,-2.041Z" style="fill:#fff;fill-rule:nonzero;"/><path d="M110.461,22.928l11.238,-0l0,2.041l-4.366,-0l0,9.724l0.225,1.739l-2.851,-0l0,-11.463l-4.246,-0l-0,-2.041Z" style="fill:#fff;fill-rule:nonzero;"/><path d="M161.639,25.007l-0.28,-2.079l2.609,-0l0,8.082c0,3.399 -2.266,5.685 -5.822,5.685c-5.175,-0 -5.298,-4.811 -5.298,-5.159l0,-6.529l-0.28,-2.079l2.907,-0l-0,8.448c-0,2.023 1.294,3.334 3.033,3.334c1.76,0 3.131,-1.455 3.131,-3.475l0,-6.228Z" style="fill:#fff;fill-rule:nonzero;"/><path d="M169.463,22.928l11.238,-0l0,2.041l-4.365,-0l-0,9.724l0.221,1.739l-2.851,-0l-0,-11.463l-4.243,-0l0,-2.041Z" style="fill:#fff;fill-rule:nonzero;"/><path d="M191.313,34.731c2.142,0 3.559,-2.139 3.559,-5.032c-0,-2.893 -1.417,-5.035 -3.559,-5.035c-2.143,-0 -3.577,2.142 -3.577,5.035c-0,2.893 1.434,5.032 3.577,5.032m6.347,-5.155c-0,4.044 -2.83,7.119 -6.508,7.119c-3.964,-0 -6.207,-3.016 -6.207,-6.873c-0,-4.026 2.791,-7.098 6.469,-7.098c4.166,0 6.246,2.851 6.246,6.852" style="fill:#fff;fill-rule:nonzero;"/><path d="M72.319,54.016l0.221,1.739l-2.847,-0l-0,-11.424l-0.287,-2.08l2.913,-0l-0,11.765Z" style="fill:#fff;fill-rule:nonzero;"/><path d="M83.898,49.061c1.276,-0 2.407,-1.171 2.407,-2.609c-0,-1.536 -1.131,-2.342 -2.407,-2.342l-0.905,-0l0,4.951l0.905,-0Zm3.478,6.694l-3.355,-4.769l-1.028,-0l0,3.03l0.221,1.739l-2.854,0l-0,-11.425l-0.281,-2.079l4.185,0c2.427,0 4.771,1.333 4.771,4.201c0,1.498 -1.031,3.177 -2.549,3.945l4.183,5.358l-3.293,0Z" style="fill:#fff;fill-rule:nonzero;"/><path d="M98.731,50.537l3.24,0l-1.399,-3.92l-0.179,-0.789l-0.203,0.81l-1.459,3.899Zm0.933,-8.128l1.717,-0.421l4.125,11.26l1.132,2.507l-2.931,-0l-1.154,-3.135l-4.467,0l-1.193,3.135l-2.423,-0l5.194,-13.346Z" style="fill:#fff;fill-rule:nonzero;"/><path d="M116.176,48.963c1.273,-0 2.409,-1.073 2.409,-2.511c0,-1.536 -1.136,-2.244 -2.409,-2.244l-0.908,-0l0,4.755l0.908,-0Zm0.369,-6.712c2.422,0 4.769,1.333 4.769,4.201c-0,2.409 -2.308,4.534 -5.461,4.534l-0.585,0l0,3.03l0.221,1.739l-2.847,-0l-0,-11.424l-0.285,-2.08l4.188,0Z" style="fill:#fff;fill-rule:nonzero;"/><path d="M136.651,44.33l-0.28,-2.079l2.605,-0l0,8.083c0,3.398 -2.265,5.684 -5.821,5.684c-5.172,0 -5.295,-4.811 -5.295,-5.158l0,-6.53l-0.284,-2.079l2.911,-0l-0,8.448c-0,2.023 1.294,3.334 3.029,3.334c1.761,0 3.135,-1.455 3.135,-3.475l0,-6.228Z" style="fill:#fff;fill-rule:nonzero;"/><path d="M148.539,50.537l3.233,0l-1.396,-3.92l-0.179,-0.789l-0.203,0.81l-1.455,3.899Zm0.929,-8.128l1.718,-0.421l4.124,11.26l1.129,2.507l-2.928,-0l-1.154,-3.135l-4.467,0l-1.196,3.135l-2.423,-0l5.197,-13.346Z" style="fill:#fff;fill-rule:nonzero;"/><path d="M159.634,42.251l11.238,0l0,2.041l-4.366,-0l0,9.724l0.218,1.739l-2.847,-0l-0,-11.463l-4.243,-0l-0,-2.041Z" style="fill:#fff;fill-rule:nonzero;"/><path d="M181.483,54.054c2.143,0 3.56,-2.139 3.56,-5.032c-0,-2.893 -1.417,-5.035 -3.56,-5.035c-2.142,-0 -3.58,2.142 -3.58,5.035c-0,2.893 1.438,5.032 3.58,5.032m6.347,-5.154c0,4.043 -2.83,7.118 -6.508,7.118c-3.963,0 -6.207,-3.015 -6.207,-6.873c0,-4.025 2.788,-7.097 6.47,-7.097c4.166,-0 6.245,2.851 6.245,6.852" style="fill:#fff;fill-rule:nonzero;"/><path d="M71.46,69.529c1.436,-0 2.376,-0.852 2.376,-2.423c-0,-1.564 -0.949,-2.406 -2.376,-2.406l-1.157,0l-0,4.829l1.157,-0Zm-2.053,-5.607l2.114,0c1.952,0 3.239,1.168 3.239,3.184c-0,2.023 -1.287,3.201 -3.239,3.201l-2.114,0l-0,-6.385Z" style="fill:#fff;fill-rule:nonzero;"/><path d="M79.609,63.922l0.896,0l0,4.124c0,0.975 0.633,1.546 1.608,1.546c0.987,-0 1.627,-0.571 1.627,-1.564l0,-4.106l0.898,0l-0,4.124c-0,1.42 -1.024,2.367 -2.514,2.367c-1.493,0 -2.515,-0.947 -2.515,-2.367l0,-4.124Z" style="fill:#fff;fill-rule:nonzero;"/><path d="M92.696,63.813c1.54,0 2.325,0.842 2.325,0.842l-0.444,0.67c0,-0 -0.741,-0.698 -1.844,-0.698c-1.429,-0 -2.358,1.087 -2.358,2.444c-0,1.364 0.946,2.521 2.367,2.521c1.202,0 1.97,-0.831 1.97,-0.831l0.481,0.638c-0,0 -0.879,1.014 -2.478,1.014c-1.916,-0 -3.263,-1.462 -3.263,-3.335c0,-1.851 1.392,-3.265 3.244,-3.265" style="fill:#fff;fill-rule:nonzero;"/><rect x="105.951" y="63.922" width="0.891" height="6.385" style="fill:#fff;"/><path d="M112.189,63.922l0.888,0l2.836,4.152c0.235,0.34 0.533,0.919 0.533,0.919l0.018,-0c-0,-0 -0.064,-0.568 -0.064,-0.919l0,-4.152l0.895,0l0,6.385l-0.874,0l-2.85,-4.144c-0.235,-0.351 -0.533,-0.929 -0.533,-0.929l-0.017,-0c-0,-0 0.062,0.571 0.062,0.929l0,4.144l-0.894,0l0,-6.385Z" style="fill:#fff;fill-rule:nonzero;"/><path d="M130.533,64.802c-0,0 -0.147,0.579 -0.256,0.905l-0.712,2.023l1.932,0l-0.704,-2.023c-0.106,-0.326 -0.242,-0.905 -0.242,-0.905l-0.018,0Zm1.199,3.668l-2.402,0l-0.635,1.837l-0.922,0l2.297,-6.385l0.94,0l2.297,6.385l-0.93,0l-0.645,-1.837Z" style="fill:#fff;fill-rule:nonzero;"/><path d="M137.851,63.922l0.894,0l-0,5.607l2.857,-0l0,0.778l-3.751,0l-0,-6.385Z" style="fill:#fff;fill-rule:nonzero;"/><path d="M147.056,64.7l-2.188,0l-0,-0.778l5.27,0l0,0.778l-2.188,0l0,5.607l-0.894,0l-0,-5.607Z" style="fill:#fff;fill-rule:nonzero;"/><path d="M154.567,63.922l0.894,0l0,4.124c0,0.975 0.632,1.546 1.61,1.546c0.982,-0 1.627,-0.571 1.627,-1.564l0,-4.106l0.894,0l0,4.124c0,1.42 -1.024,2.367 -2.51,2.367c-1.494,0 -2.515,-0.947 -2.515,-2.367l0,-4.124Z" style="fill:#fff;fill-rule:nonzero;"/><path d="M165.157,63.922l0.94,0l1.465,3.454c0.144,0.354 0.316,0.859 0.316,0.859l0.017,0c0,0 0.172,-0.505 0.316,-0.859l1.466,-3.454l0.94,0l0.515,6.385l-0.887,0l-0.316,-4.025c-0.028,-0.389 -0.007,-0.94 -0.007,-0.94l-0.021,0c0,0 -0.189,0.586 -0.343,0.94l-1.274,2.875l-0.796,0l-1.265,-2.875c-0.144,-0.344 -0.344,-0.958 -0.344,-0.958l-0.018,0c0,0 0.011,0.569 -0.017,0.958l-0.308,4.025l-0.895,0l0.516,-6.385Z" style="fill:#fff;fill-rule:nonzero;"/></g></g></g></svg>