<?xml version="1.0"?>
<svg xmlns="http://www.w3.org/2000/svg" xmlns:xlink="http://www.w3.org/1999/xlink" xmlns:svgjs="http://svgjs.com/svgjs" version="1.1" width="512" height="512" x="0" y="0" viewBox="0 0 512 512" style="enable-background:new 0 0 512 512" xml:space="preserve" class=""><circle r="256" cx="256" cy="256" fill="#9c65ed" shape="circle"/><g transform="matrix(0.7,0,0,0.7,76.80000000000001,76.80000000000001)"><g xmlns="http://www.w3.org/2000/svg"><path d="m391 120h-135v-30h75c8.291 0 15-6.709 15-15v-60c0-8.291-6.709-15-15-15h-90c-8.291 0-15 6.709-15 15v105h-21.194c30.948 24.76 51.194 62.373 51.194 105v165h225c8.291 0 15-6.709 15-15v-150c0-57.891-47.109-105-105-105zm-15 210c-8.284 0-15-6.716-15-15 0-8.286 6.716-15 15-15s15 6.714 15 15c0 8.284-6.716 15-15 15zm15.19-62.622c0 8.276-6.812 16.304-15.088 16.304-8.291 0-15.103-5.391-15.103-13.682 0-15.132 8.071-26.572 20.068-30.864 5.934-2.139 9.933-7.808 9.933-14.136 0-8.276-6.724-15-15-15s-15 6.724-15 15c0 8.291-6.709 15-15 15s-15-6.709-15-15c0-24.814 20.186-45 45-45s45 20.186 45 45c0 18.94-11.982 35.977-29.81 42.378z" fill="#ffffff" data-original="#000000" style="" class=""/><path d="m121 120c-57.891 0-105 47.109-105 105v150c0 8.291 6.709 15 15 15h180c8.291 0 15-6.709 15-15v-150c0-57.891-47.109-105-105-105zm30 210h-60c-8.291 0-15-6.709-15-15s6.709-15 15-15h60c8.291 0 15 6.709 15 15s-6.709 15-15 15z" fill="#ffffff" data-original="#000000" style="" class=""/><path d="m256 497c0 8.291 6.709 15 15 15h60c8.291 0 15-6.709 15-15v-77h-90z" fill="#ffffff" data-original="#000000" style="" class=""/></g></g></svg>
